# xmcd
#
# Track frame offsets: 
#        150
#        17006
#        31938
#        55601
#        78193
#        99289
#        117724
#        132514
#        151834
#        175372
#
# Disc length: 2612 seconds
#
# Revision: 1
# Processed by: cddbd v1.5.2PL0 Copyright (c) Steve Scherf et al.
# Submitted via: ExactAudioCopy v0.95b4
#
DISCID=740a320a
DTITLE=Danny Rhodes and The Messengers - Home Cookin'
DYEAR=1900
DGENRE=Blues
TTITLE0=River Road
TTITLE1=Runaway Child
TTITLE2=Real Party Now
TTITLE3=Home Cookin'
TTITLE4=Nothing Left in Dixie
TTITLE5=A Man Without Love
TTITLE6=What Cha Gonna Do
TTITLE7=Trouble in the Jungle
TTITLE8=Call My Baby
TTITLE9=The Messenger
EXTD=
EXTT0=
EXTT1=
EXTT2=
EXTT3=
EXTT4=
EXTT5=
EXTT6=
EXTT7=
EXTT8=
EXTT9=
PLAYORDER=
